<?xml version="1.0" encoding="UTF-8"?>
<svg id="Capa_1" data-name="Capa 1" xmlns="http://www.w3.org/2000/svg" viewBox="0 0 665 143">
  <defs>
    <style>
      .cls-1 {
        fill: #e84c38;
      }

      .cls-2 {
        fill: #3b3535;
      }

      .cls-3 {
        fill: #75c9e7;
      }

      .cls-4 {
        fill: #fcc543;
      }

      .cls-5 {
        stroke: #000100;
        stroke-miterlimit: 10;
        stroke-width: 1.36px;
      }

      .cls-5, .cls-6 {
        fill: #f9b32f;
      }

      .cls-7 {
        fill: #f7ab1f;
      }

      .cls-8 {
        fill: #b5cf56;
      }

      .cls-9 {
        fill: #f9e925;
      }

      .cls-10 {
        fill: #ffde0c;
      }
    </style>
  </defs>
  <g>
    <path class="cls-2" d="m482.29,79.14c1.25-18.98,2.55-38.6,3.58-58.68.03-.59-.38-1.11-.96-1.22-13.9-2.72-28.13-2.03-41.13,1.98-.58.18-.94.77-.81,1.37,2.47,12.01,4.22,24.38,5.19,36.77-5.44,2.14-10.99,3.99-15.91,5.62-.99.33-1.96.65-2.9.97-.62.21-.95.86-.76,1.48,7.04,22.3,14.32,45.36,22.59,68.55.12.34.38.59.7.71.17.06.36.09.55.06.55-.06.98-.5,1.04-1.05t0,0c.17-.27.24-.6.15-.94l-.03-.11c2.1-18.54,4.27-37.65,6.88-55.91,6.74.74,13.68,1.46,20.62,1.52.63,0,1.16-.49,1.2-1.12Zm-51.08-11.31c.59-.2,1.18-.39,1.78-.59,5.2-1.73,11.09-3.68,16.86-5.99.48-.19.78-.67.74-1.19-.94-12.42-2.65-24.82-5.09-36.88,1.55-.46,3.13-.86,4.71-1.22,1.25,13.95,2.55,28.35,3.82,42.77-2.66.78-5.36,1.54-7.98,2.27-3.52.98-7.16,2-10.75,3.11-.61.19-.96.82-.8,1.44l9.65,36.57c-4.5-13.6-8.77-27.08-12.94-40.28Zm28.39,8.43c-.64-.07-1.21.38-1.31,1.01-2.4,16.65-4.42,34.02-6.36,51.04l-14.84-56.27c3.21-.97,6.45-1.87,9.6-2.75,2.94-.82,5.98-1.67,8.95-2.56.54-.16.89-.68.84-1.24-1.3-14.84-2.64-29.67-3.93-44.02,10-1.94,20.52-1.99,30.89-.09-1,19.31-2.24,38.2-3.45,56.5-6.84-.13-13.73-.88-20.4-1.61Z"/>
    <path class="cls-9" d="m449.85,61.24c.48-.19.78-.67.74-1.19-.94-12.42-2.65-24.82-5.09-36.88,1.55-.46,3.13-.86,4.71-1.22,1.25,13.95,2.55,28.35,3.82,42.77-2.66.78-5.36,1.54-7.98,2.27-3.52.98-7.16,2-10.75,3.11-.61.19-.96.82-.8,1.44l9.65,36.57c-4.5-13.6-8.77-27.08-12.94-40.28.59-.2,1.18-.39,1.78-.59,5.2-1.73,11.09-3.68,16.86-5.99Z"/>
    <path class="cls-7" d="m458.29,77.27c-2.4,16.65-4.42,34.02-6.36,51.04l-14.84-56.27c3.21-.97,6.45-1.87,9.6-2.75,2.94-.82,5.98-1.67,8.95-2.56.54-.16.89-.68.84-1.24-1.3-14.84-2.64-29.67-3.93-44.02,10-1.94,20.52-1.99,30.89-.09-1,19.31-2.24,38.2-3.45,56.5-6.84-.13-13.73-.88-20.4-1.61-.64-.07-1.21.38-1.31,1.01Z"/>
  </g>
  <g>
    <path class="cls-2" d="m361.71,63.91s0-.02,0-.04c.05-.24.01-.5-.11-.72-.97-6.66-2.54-13.25-4.66-19.63-.01-.15-.06-.29-.14-.43-.15-.39-.52-.66-.94-.66-22.76-.16-45.49.45-71.82,1.15l-3.58.09c-.36.01-.68.21-.86.52l-13.22,23.83c-.17.31-.17.68,0,.99.16.29.46.48.79.51.02,0,.04,0,.06,0h.03c14.62,17.73,30.31,34.06,46.65,48.55.17.15.37.23.58.25.31.03.62-.08.84-.32,15.72-17.05,31.05-34.88,45.58-52.99.24-.05.46-.18.6-.37.16-.21.23-.49.2-.75Zm-7.87-19.46l-18.42,20.86c-4.58-6.93-9.21-13.87-13.71-20.61,10.97-.2,21.57-.31,32.14-.26Zm-20.47,21.45c-9.62.78-19.26,1.33-28.91,1.63,5.73-6.63,11-13.83,15.71-21.47,4.33,6.49,8.79,13.17,13.2,19.84Zm-49.28-20.28c12.15-.33,23.53-.63,34.5-.85-4.88,7.93-10.37,15.41-16.35,22.24-7.13-6.34-13.49-13.35-19.37-21.37l1.23-.03Zm-3.3.62c5.82,8.01,12.11,15.05,19.13,21.42-10.34.25-20.67.22-30.97-.09l11.84-21.33Zm-10.83,23.38c10.53.29,21.09.3,31.65.02,4.25,14.54,7.87,29.44,10.75,44.34-14.8-13.39-29.04-28.29-42.4-44.36Zm44.59,45.03c-2.9-15.14-6.54-30.28-10.85-45.06,10.16-.31,20.31-.88,30.43-1.71l-19.58,46.78Zm3.1-2.15l18.76-44.81c7.22-.62,14.43-1.38,21.61-2.28-12.93,16.05-26.48,31.86-40.37,47.09Zm20.3-46.98l17.55-19.87c1.81,5.71,3.18,11.6,4.07,17.53-7.18.92-14.39,1.69-21.61,2.34Z"/>
    <path class="cls-3" d="m312.36,113.98c-14.8-13.39-29.04-28.29-42.4-44.36,10.53.29,21.09.3,31.65.02,4.25,14.54,7.87,29.44,10.75,44.34Z"/>
    <path class="cls-3" d="m334.13,67.87l-19.58,46.78c-2.9-15.14-6.54-30.28-10.85-45.06,10.16-.31,20.31-.88,30.43-1.71Z"/>
    <path class="cls-3" d="m358.01,65.4c-12.93,16.05-26.48,31.86-40.37,47.09l18.76-44.81c7.22-.62,14.43-1.38,21.61-2.28Z"/>
    <path class="cls-3" d="m359.55,63.17c-7.18.92-14.39,1.69-21.61,2.34l17.55-19.87c1.81,5.71,3.18,11.6,4.07,17.53Z"/>
    <path class="cls-3" d="m353.83,44.45l-18.42,20.86c-4.58-6.93-9.21-13.87-13.71-20.61,10.97-.2,21.57-.31,32.14-.26Z"/>
    <path class="cls-3" d="m333.37,65.9c-9.62.78-19.26,1.33-28.91,1.63,5.73-6.63,11-13.83,15.71-21.47,4.33,6.49,8.79,13.17,13.2,19.84Z"/>
    <path class="cls-3" d="m318.58,44.77c-4.88,7.93-10.37,15.41-16.35,22.24-7.13-6.34-13.49-13.35-19.37-21.37l1.23-.03c12.15-.33,23.53-.63,34.5-.85Z"/>
    <path class="cls-3" d="m299.92,67.65c-10.34.25-20.67.22-30.97-.09l11.84-21.33c5.82,8.01,12.11,15.05,19.13,21.42Z"/>
    <path class="cls-2" d="m261.36,43.51c-2.36-2.16-5.03-3.91-7.94-5.2-.51-.23-1.11,0-1.34.51-.23.51,0,1.11.51,1.34,2.71,1.2,5.2,2.83,7.4,4.84.17.15.38.24.59.26.3.03.62-.08.84-.33.38-.41.35-1.05-.06-1.43Z"/>
    <path class="cls-2" d="m270.15,32.51c.5-.25.71-.86.46-1.36l-4.47-9.03c-.25-.5-.86-.71-1.36-.46s-.71.86-.46,1.36l4.47,9.03c.16.33.48.53.82.56.18.02.37-.01.54-.1Z"/>
    <path class="cls-2" d="m277.44,25.4s.06,0,.08.01c.52.05,1-.31,1.09-.83l1.49-8.48c.1-.55-.27-1.08-.82-1.17-.55-.1-1.08.27-1.17.82l-1.49,8.48c-.1.55.27,1.08.82,1.17Z"/>
    <path class="cls-2" d="m369.48,25.48c-.49-.27-1.11-.08-1.37.41l-4.91,9.06c-.27.49-.08,1.11.41,1.37.12.07.26.11.39.12.39.04.79-.16.98-.53l4.91-9.06c.27-.49.08-1.11-.41-1.37Z"/>
    <path class="cls-2" d="m379.48,34.13c-.32-.46-.95-.58-1.41-.26l-8.94,6.11c-.46.32-.58.95-.26,1.41.18.26.45.41.74.44.23.02.46-.03.66-.17l8.94-6.11c.46-.32.58-.95.26-1.41Z"/>
    <path class="cls-2" d="m380.46,45.14l-8.12-.16c-.56-.01-1.02.43-1.03.99-.01.53.39.98.92,1.03.03,0,.05,0,.08,0l8.12.16c.56.01,1.02-.43,1.03-.99.01-.56-.44-1.02-.99-1.03Z"/>
  </g>
  <g>
    <path class="cls-2" d="m216.88,101.1c0-.4-.02-.8-.03-1.2-.13-4.89-.44-9.33-.94-13.58h0s0-.01,0-.01c-.68-5.84-1.69-11.11-3.1-16.12-.81-2.9-1.76-5.69-2.82-8.32,0-.01-.01-.03-.02-.05-.2-.5-.41-1-.62-1.5-1.52-3.56-3.76-8.02-7.6-10.94-.66-.5-1.36-.95-2.09-1.35-2.81-1.54-6.29-2.41-10.08-2.52-.82-.02-1.69-.02-2.57.02-.23,0-.47.02-.71.03,5.63-12.69,7.9-27.17,6.4-40.97-.04-.41-.34-.74-.74-.83-.4-.09-.81.08-1.03.43-3.95,6.31-8.04,12.83-10.47,20.1-1.44-7.13-3.48-14.2-5.31-20.56-.11-.39-.45-.67-.86-.69-.4-.03-.78.2-.94.57-3.1,6.94-6.3,14.12-7.27,21.88-.17,1.38-.26,2.75-.27,4.11-3.78-5.96-8.33-11.32-13.58-15.95-.3-.26-.73-.31-1.08-.13-.35.18-.56.56-.51.96,1.45,12.81,7.74,24.82,17.34,33.24-.24.07-.49.15-.73.23,0,0,0,0,0,0h0c-4.69,1.57-8.92,4.12-12.24,7.38h0s-.02.02-.02.03c-1.44,1.41-2.71,2.96-3.79,4.62-2.58,3.95-4.25,8.61-5.11,14.26-.48,3.17-.7,6.6-.66,10.47h0s0,.01,0,.02c0,0,0,.01,0,.02.04,3.78.29,7.62.76,11.38,0,0,0,.01,0,.02.33,2.66.77,5.35,1.32,8.01.83,3.98,1.9,7.94,3.19,11.77.12.37.25.74.38,1.11,0,.02.02.04.03.06,1.11,3.14,2.28,5.79,3.58,8.11,1.83,3.27,3.89,5.87,6.31,7.94,2.48,2.12,5.5,3.79,8.98,4.96,2.82.95,5.98,1.59,9.41,1.9.37.03.74.06,1.12.09,2.72.19,5.45.14,8.09-.14.94-.1,1.88-.23,2.81-.39,0,0,.01,0,.02,0h0c8.15-1.42,14.68-5.03,18.9-10.46.02-.03.05-.06.08-.1,0,0,.01-.02.02-.03,3.01-3.93,4.92-8.85,5.83-15.01t0,0s0,0,0,0c.53-3.61.72-7.69.61-12.83Zm-2.02-3.12c-1.19-.86-2.37-1.73-3.56-2.59.99-1.9,2.01-3.82,3.03-5.74.25,2.66.42,5.42.54,8.34Zm-.9-11.75c-1.43,2.67-2.85,5.36-4.23,8.01l-13.17-9.59c3.04-5.36,6.23-10.72,9.52-15.96l1.81.88c1.06.52,2.12,1.03,3.18,1.55,1.3,4.7,2.24,9.65,2.89,15.11Zm-42.44-34.38c2.33,1.14,4.67,2.27,7,3.41-2.7,3.4-5.36,6.91-7.93,10.47l-6.42-4.68c2.38-3.1,4.85-6.18,7.35-9.2Zm-1.3-2.78c.44-.11.91-.22,1.37-.32-.21.25-.4.48-.59.7l-.78-.39Zm12.11,27.58l2.84,2.07c2.96,2.16,5.92,4.31,8.87,6.47-2.09,3.71-4.15,7.52-6.15,11.34-4.56-2.65-8.79-5.09-12.87-7.43,2.38-4.2,4.84-8.38,7.31-12.45Zm-8.97,11.5c-3.84-2.2-7.61-4.35-11.23-6.4,2.84-4.52,5.84-9,8.91-13.33l9.73,7.09c-2.51,4.14-5,8.37-7.41,12.63Zm12.95-10.98l-2.97-2.17c2.74-4.48,5.56-8.95,8.4-13.31,4.2,2.05,8.4,4.1,12.61,6.14-3.22,5.15-6.36,10.41-9.35,15.67-2.9-2.11-5.8-4.22-8.69-6.33Zm-4.53-3.3l-9.61-7.01c2.63-3.65,5.37-7.26,8.14-10.74l3.4,1.66,6.3,3.06c-2.78,4.26-5.54,8.63-8.22,13.02Zm-2.02-20.15c-2.32-1.13-4.64-2.26-6.97-3.39.33-.39.68-.81,1.1-1.3.08-.1.17-.21.28-.33.11-.14.23-.27.35-.41,1.02-.12,2.04-.19,3.05-.21,1.3-.02,2.64-.12,3.77-.22.02,0,.04,0,.06,0,.01,0,.02,0,.03,0l1.04-.09c.79-.07,1.59-.14,2.39-.2,0,0,0,0,0,0-1.71,2-3.41,4.06-5.09,6.15Zm-10.27,13.58c-3.12,4.39-6.15,8.92-9.03,13.51-2.42-1.38-4.91-2.77-7.53-4.25,3.23-4.73,6.62-9.42,10.09-13.98l6.47,4.72Zm-8.37,16.09c3.64,2.06,7.44,4.22,11.3,6.44-2.57,4.57-5.1,9.23-7.54,13.89-3.92-1.98-7.97-4-12.06-6.02,2.61-4.83,5.4-9.63,8.3-14.31Zm4.59,22.9c4.72,2.39,9.37,4.78,13.84,7.12-2.17,4.62-4.27,9.33-6.28,14.04l-5.66-3.16c-2.84-1.59-5.69-3.18-8.53-4.76,2.17-4.48,4.39-8.93,6.63-13.24Zm.89-1.71c2.42-4.63,4.94-9.26,7.49-13.8,4.09,2.35,8.34,4.8,12.93,7.46-2.3,4.45-4.53,8.95-6.65,13.42-4.45-2.32-9.07-4.7-13.77-7.09Zm22.09-5.36c4.88,2.84,9.65,5.63,14.2,8.32-2.1,4.13-4.23,8.39-6.36,12.69-4.79-2.58-9.64-5.15-14.45-7.67,2.1-4.44,4.32-8.92,6.61-13.34Zm.89-1.71c1.97-3.77,4-7.52,6.05-11.17l13.22,9.63c-1.66,3.19-3.37,6.49-5.09,9.85-4.55-2.68-9.31-5.48-14.19-8.31Zm20.79-28.88c-.54-.26-1.08-.52-1.62-.78l-1.62-.79c.58-.92,1.17-1.84,1.76-2.76.52,1.41,1.02,2.85,1.48,4.33Zm-10.85-18.47c.38.24.75.49,1.1.76,3.48,2.65,5.56,6.83,6.99,10.17.14.34.28.67.42,1.01-.89,1.36-1.77,2.74-2.64,4.12-4.19-2.04-8.38-4.09-12.57-6.13,2.18-3.32,4.42-6.64,6.7-9.92Zm-11.99-2.72c.7-.02,1.38-.02,2.03,0,3.07.09,5.89.71,8.26,1.8-2.29,3.3-4.55,6.65-6.74,9.99-2.17-1.06-4.34-2.11-6.51-3.17l-3.01-1.47c1.97-2.44,3.98-4.84,5.98-7.15Zm-5.29-22.34c2.05-6.21,5.4-11.94,8.83-17.46.91,12.94-1.52,26.33-6.92,38.07-.59.05-1.19.1-1.77.15.28-5.37-.09-11.05-1.11-17.32.27-1.13.59-2.29.97-3.44Zm-14.22.62c.82-6.6,3.37-12.86,6.04-18.92,1.97,6.86,4.05,14.41,5.28,21.86,0,0,0,0,0,0h0c1.05,6.31,1.41,12,1.1,17.35-.92.07-1.92.13-2.9.15-1.19.02-2.41.11-3.62.26-.01,0-.03,0-.04,0-1.68-4.63-4.01-9.86-5.93-13.31-.27-2.41-.25-4.89.07-7.4Zm-15.07-8.84c5.2,4.95,9.65,10.66,13.23,17.01.92,1.64,1.95,3.72,2.95,5.96s1.98,4.63,2.82,6.89c-.58.11-1.15.23-1.7.36-9.11-7.57-15.32-18.45-17.3-30.22Zm14.58,33.02l2.24,1.09c-2.42,2.93-4.81,5.93-7.12,8.93l-5.46-3.97c2.89-2.62,6.44-4.69,10.34-6.05Zm-14.7,11.12c.86-1.32,1.85-2.56,2.96-3.71l5.69,4.14c-3.52,4.62-6.95,9.38-10.22,14.17-1.05-.59-2.09-1.17-3.14-1.76.84-5.07,2.39-9.28,4.71-12.84Zm-5.42,20.35c.06-1.93.2-3.74.41-5.47.79.44,1.57.88,2.35,1.32-.93,1.37-1.85,2.76-2.76,4.15Zm.65,13.99c-.41-3.45-.64-6.94-.69-10.4,1.47-2.29,2.97-4.57,4.48-6.8,2.65,1.49,5.15,2.9,7.6,4.28-2.91,4.71-5.72,9.55-8.35,14.41-1.01-.5-2.03-1-3.05-1.49Zm.3,2.29c.61.3,1.23.6,1.84.9-.44.82-.87,1.65-1.3,2.47-.2-1.12-.38-2.24-.54-3.37Zm4.2,17.64c-1.23-3.65-2.26-7.42-3.06-11.21.78-1.54,1.6-3.11,2.43-4.68,4.1,2.02,8.15,4.05,12.08,6.03-2.23,4.29-4.44,8.71-6.6,13.17l-4.6-2.57c-.09-.25-.17-.49-.25-.74Zm2.95,7.27c-.58-1.16-1.13-2.4-1.66-3.74l2.72,1.52c-.38.79-.73,1.53-1.06,2.22Zm14.26,13.4c-2.88-1.07-5.4-2.51-7.49-4.29-2.14-1.83-3.99-4.13-5.64-7,.49-1.04,1.01-2.15,1.61-3.39,2.81,1.57,5.62,3.14,8.43,4.71l5.85,3.26c-.93,2.22-1.86,4.47-2.76,6.71Zm18.12,2.13c-2.37.22-4.8.25-7.23.08-3.3-.23-6.34-.76-9.07-1.59.86-2.14,1.73-4.28,2.62-6.39,4.59,2.56,9.18,5.13,13.77,7.69-.03.07-.06.13-.1.2Zm.92-1.94c-4.62-2.58-9.23-5.16-13.85-7.73,2.01-4.72,4.12-9.46,6.29-14.09,4.8,2.51,9.64,5.08,14.41,7.66-2.35,4.79-4.66,9.55-6.86,14.17Zm2.62,1.46l-.94-.52c2.21-4.63,4.52-9.4,6.88-14.2,3.55,1.92,7.16,3.89,10.76,5.88-4.83,5.62-11.62,7.91-16.7,8.84Zm17.91-10.37c-3.73-2.06-7.46-4.1-11.12-6.08,2.12-4.28,4.24-8.52,6.33-12.63,3.04,1.8,6.24,3.7,9.73,5.78-.85,5.25-2.47,9.49-4.94,12.93Zm5.23-15c-3.26-1.94-6.27-3.73-9.14-5.42,1.69-3.3,3.36-6.56,5-9.69,1.51,1.1,3.03,2.2,4.54,3.31,0,.24.01.48.02.72.09,4.36-.04,7.93-.41,11.08Z"/>
    <path class="cls-10" d="m171.59,48.76c-.21.25-.4.48-.59.7l-.78-.39c.44-.11.91-.22,1.37-.32Z"/>
    <path class="cls-10" d="m150.17,98.54c-.44.82-.87,1.65-1.3,2.47-.2-1.12-.38-2.24-.54-3.37.61.3,1.23.6,1.84.9Z"/>
    <path class="cls-10" d="m150.14,77.22c-.93,1.37-1.85,2.76-2.76,4.15.06-1.93.2-3.74.41-5.47.79.44,1.57.88,2.35,1.32Z"/>
    <path class="cls-10" d="m159.42,82.44c-2.91,4.71-5.72,9.55-8.35,14.41-1.01-.5-2.03-1-3.05-1.49-.41-3.45-.64-6.94-.69-10.4,1.47-2.29,2.97-4.57,4.48-6.8,2.65,1.49,5.15,2.9,7.6,4.28Z"/>
    <path class="cls-10" d="m169.47,67.3c-3.12,4.39-6.15,8.92-9.03,13.51-2.42-1.38-4.91-2.77-7.53-4.25,3.23-4.73,6.62-9.42,10.09-13.98l6.47,4.72Z"/>
    <path class="cls-10" d="m161.45,61.45c-3.52,4.62-6.95,9.38-10.22,14.17-1.05-.59-2.09-1.17-3.14-1.76.84-5.07,2.39-9.28,4.71-12.84.86-1.32,1.85-2.56,2.96-3.71l5.69,4.14Z"/>
    <path class="cls-10" d="m169.74,50.99c-2.42,2.93-4.81,5.93-7.12,8.93l-5.46-3.97c2.89-2.62,6.44-4.69,10.34-6.05l2.24,1.09Z"/>
    <path class="cls-10" d="m178.52,55.26c-2.7,3.4-5.36,6.91-7.93,10.47l-6.42-4.68c2.38-3.1,4.85-6.18,7.35-9.2,2.33,1.14,4.67,2.27,7,3.41Z"/>
    <path class="cls-10" d="m184.84,47.58c-1.71,2-3.41,4.06-5.09,6.15-2.32-1.13-4.64-2.26-6.97-3.39.33-.39.68-.81,1.1-1.3.08-.1.17-.21.28-.33.11-.14.23-.27.35-.41,1.02-.12,2.04-.19,3.05-.21,1.3-.02,2.64-.12,3.77-.22.02,0,.04,0,.06,0,.01,0,.02,0,.03,0l1.04-.09c.79-.07,1.59-.14,2.39-.2,0,0,0,0,0,0Z"/>
    <path class="cls-10" d="m197.79,49.24c-2.29,3.3-4.55,6.65-6.74,9.99-2.17-1.06-4.34-2.11-6.51-3.17l-3.01-1.47c1.97-2.44,3.98-4.84,5.98-7.15.7-.02,1.38-.02,2.03,0,3.07.09,5.89.71,8.26,1.8Z"/>
    <path class="cls-10" d="m189.99,60.85c-2.78,4.26-5.54,8.63-8.22,13.02l-9.61-7.01c2.63-3.65,5.37-7.26,8.14-10.74l3.4,1.66,6.3,3.06Z"/>
    <path class="cls-10" d="m180.76,75.52c-2.51,4.14-5,8.37-7.41,12.63-3.84-2.2-7.61-4.35-11.23-6.4,2.84-4.52,5.84-9,8.91-13.33l9.73,7.09Z"/>
    <path class="cls-10" d="m172.4,89.83c-2.57,4.57-5.1,9.23-7.54,13.89-3.92-1.98-7.97-4-12.06-6.02,2.61-4.83,5.4-9.63,8.3-14.31,3.64,2.06,7.44,4.22,11.3,6.44Z"/>
    <path class="cls-10" d="m163.97,105.42c-2.23,4.29-4.44,8.71-6.6,13.17l-4.6-2.57c-.09-.25-.17-.49-.25-.74-1.23-3.65-2.26-7.42-3.06-11.21.78-1.54,1.6-3.11,2.43-4.68,4.1,2.02,8.15,4.05,12.08,6.03Z"/>
    <path class="cls-10" d="m156.54,120.33c-.38.79-.73,1.53-1.06,2.22-.58-1.16-1.13-2.4-1.66-3.74l2.72,1.52Z"/>
    <path class="cls-10" d="m172.5,129.24c-.93,2.22-1.86,4.47-2.76,6.71-2.88-1.07-5.4-2.51-7.49-4.29-2.14-1.83-3.99-4.13-5.64-7,.49-1.04,1.01-2.15,1.61-3.39,2.81,1.57,5.62,3.14,8.43,4.71l5.85,3.26Z"/>
    <path class="cls-10" d="m187.96,137.87c-.03.07-.06.13-.1.2-2.37.22-4.8.25-7.23.08-3.3-.23-6.34-.76-9.07-1.59.86-2.14,1.73-4.28,2.62-6.39,4.59,2.56,9.18,5.13,13.77,7.69Z"/>
    <path class="cls-10" d="m195.65,121.96c-2.35,4.79-4.66,9.55-6.86,14.17-4.62-2.58-9.23-5.16-13.85-7.73,2.01-4.72,4.12-9.46,6.29-14.09,4.8,2.51,9.64,5.08,14.41,7.66Z"/>
    <path class="cls-10" d="m179.53,113.41c-2.17,4.62-4.27,9.33-6.28,14.04l-5.66-3.16c-2.84-1.59-5.69-3.18-8.53-4.76,2.17-4.48,4.39-8.93,6.63-13.24,4.72,2.39,9.37,4.78,13.84,7.12Z"/>
    <path class="cls-10" d="m187,98.25c-2.3,4.45-4.53,8.95-6.65,13.42-4.45-2.32-9.07-4.7-13.77-7.09,2.42-4.63,4.94-9.26,7.49-13.8,4.09,2.35,8.34,4.8,12.93,7.46Z"/>
    <path class="cls-10" d="m202.87,107.54c-2.1,4.13-4.23,8.39-6.36,12.69-4.79-2.58-9.64-5.15-14.45-7.67,2.1-4.44,4.32-8.92,6.61-13.34,4.88,2.84,9.65,5.63,14.2,8.32Z"/>
    <path class="cls-10" d="m208.83,95.97c-1.66,3.19-3.37,6.49-5.09,9.85-4.55-2.68-9.31-5.48-14.19-8.31,1.97-3.77,4-7.52,6.05-11.17l13.22,9.63Z"/>
    <path class="cls-10" d="m194.04,85.2c-2.09,3.71-4.15,7.52-6.15,11.34-4.56-2.65-8.79-5.09-12.87-7.43,2.38-4.2,4.84-8.38,7.31-12.45l2.84,2.07c2.96,2.16,5.92,4.31,8.87,6.47Z"/>
    <path class="cls-10" d="m204.34,67.84c-3.22,5.15-6.36,10.41-9.35,15.67-2.9-2.11-5.8-4.22-8.69-6.33l-2.97-2.17c2.74-4.48,5.56-8.95,8.4-13.31,4.2,2.05,8.4,4.1,12.61,6.14Z"/>
    <path class="cls-10" d="m208,62.09c-.89,1.36-1.77,2.74-2.64,4.12-4.19-2.04-8.38-4.09-12.57-6.13,2.18-3.32,4.42-6.64,6.7-9.92.38.24.75.49,1.1.76,3.48,2.65,5.56,6.83,6.99,10.17.14.34.28.67.42,1.01Z"/>
    <path class="cls-10" d="m210.34,68.63c-.54-.26-1.08-.52-1.62-.78l-1.62-.79c.58-.92,1.17-1.84,1.76-2.76.52,1.41,1.02,2.85,1.48,4.33Z"/>
    <path class="cls-10" d="m213.96,86.23c-1.43,2.67-2.85,5.36-4.23,8.01l-13.17-9.59c3.04-5.36,6.23-10.72,9.52-15.96l1.81.88c1.06.52,2.12,1.03,3.18,1.55,1.3,4.7,2.24,9.65,2.89,15.11Z"/>
    <path class="cls-10" d="m214.86,97.98c-1.19-.86-2.37-1.73-3.56-2.59.99-1.9,2.01-3.82,3.03-5.74.25,2.66.42,5.42.54,8.34Z"/>
    <path class="cls-10" d="m214.55,112.23c-3.26-1.94-6.27-3.73-9.14-5.42,1.69-3.3,3.36-6.56,5-9.69,1.51,1.1,3.03,2.2,4.54,3.31,0,.24.01.48.02.72.09,4.36-.04,7.93-.41,11.08Z"/>
    <path class="cls-10" d="m214.26,114.3c-.85,5.25-2.47,9.49-4.94,12.93-3.73-2.06-7.46-4.1-11.12-6.08,2.12-4.28,4.24-8.52,6.33-12.63,3.04,1.8,6.24,3.7,9.73,5.78Z"/>
    <path class="cls-10" d="m208.11,128.75c-4.83,5.62-11.62,7.91-16.7,8.84l-.94-.52c2.21-4.63,4.52-9.4,6.88-14.2,3.55,1.92,7.16,3.89,10.76,5.88Z"/>
    <path class="cls-8" d="m184.12,45.71c-.59.05-1.19.1-1.77.15.28-5.37-.09-11.05-1.11-17.32.27-1.13.59-2.29.97-3.44,2.05-6.21,5.4-11.94,8.83-17.46.91,12.94-1.52,26.33-6.92,38.07Z"/>
    <path class="cls-8" d="m180.41,46.02c-.92.07-1.92.13-2.9.15-1.19.02-2.41.11-3.62.26-.01,0-.03,0-.04,0-1.68-4.63-4.01-9.86-5.93-13.31-.27-2.41-.25-4.89.07-7.4.82-6.6,3.37-12.86,6.04-18.92,1.97,6.86,4.05,14.41,5.28,21.86,0,0,0,0,0,0h0c1.05,6.31,1.41,12,1.1,17.35Z"/>
    <path class="cls-8" d="m171.92,46.74c-.58.11-1.15.23-1.7.36-9.11-7.57-15.32-18.45-17.3-30.22,5.2,4.95,9.65,10.66,13.23,17.01.92,1.64,1.95,3.72,2.95,5.96s1.98,4.63,2.82,6.89Z"/>
  </g>
  <g>
    <path class="cls-2" d="m57.6,117.8c-.42,1.23-1.4,2.14-2.49,2.31-.21.03-.42.04-.63.02-.92-.09-1.85-.65-2.48-1.54-.67-.94-.96-2.06-1.21-3.05-.07-.27.09-.55.37-.62.27-.07.55.09.62.37.23.9.49,1.93,1.05,2.71.43.6,1.24,1.25,2.13,1.11.82-.12,1.44-.91,1.69-1.63.3-.88.25-1.86.14-2.79-.03-.28.17-.53.45-.56.28-.03.53.17.56.45.11.99.18,2.15-.19,3.23Z"/>
    <path class="cls-2" d="m49.59,114.45c-.27.07-.55-.09-.62-.36-.17-.66-.39-1.09-.69-1.35-.28-.24-.76-.35-1.02-.12-.16.13-.26.39-.26.68,0,.33.09.69.18,1.02.07.27-.09.55-.36.62-.06.02-.12.02-.18.02-.2-.02-.38-.16-.44-.37-.1-.37-.22-.83-.21-1.3.01-.59.24-1.11.63-1.43.63-.53,1.64-.47,2.34.13.61.53.87,1.32,1.01,1.86.07.27-.09.55-.36.62Z"/>
    <path class="cls-2" d="m59.66,113.29c-.28.03-.53-.17-.56-.44-.06-.48-.11-.98-.34-1.35-.16-.27-.5-.51-.77-.44-.2.06-.39.29-.47.58-.09.34-.06.75-.03,1.13.02.28-.19.52-.47.54-.03,0-.06,0-.09,0-.24-.02-.44-.22-.46-.47-.03-.45-.07-.97.07-1.48.18-.65.63-1.14,1.18-1.29.69-.19,1.48.18,1.91.89.34.56.41,1.22.48,1.76.03.28-.17.53-.44.56Z"/>
    <path class="cls-2" d="m43.2,117.44l-1.01,2.08c-.09.19-.3.3-.5.28-.06,0-.12-.02-.17-.05-.25-.12-.36-.43-.23-.68l1.01-2.08c.12-.25.43-.36.68-.23.25.12.36.43.23.68Z"/>
    <path class="cls-2" d="m44.57,117.48l-.51,1.96c-.06.24-.29.4-.54.38-.03,0-.05,0-.08-.01-.27-.07-.43-.35-.36-.62l.51-1.96c.07-.27.35-.43.62-.36.27.07.43.35.36.62Z"/>
    <path class="cls-2" d="m64.69,115.09c-.17.73-.46,1.43-.85,2.08-.1.17-.29.26-.48.24-.07,0-.15-.03-.21-.07-.24-.14-.32-.45-.17-.69.34-.56.58-1.16.73-1.79.07-.27.34-.44.61-.37.27.07.44.34.37.61Z"/>
    <path class="cls-2" d="m66.7,114.9c-.33.82-.57,1.68-.74,2.55-.05.26-.29.44-.55.41-.01,0-.03,0-.05,0-.27-.05-.46-.32-.4-.59.18-.94.44-1.86.79-2.74.1-.26.4-.39.66-.28.26.1.39.4.28.66Z"/>
    <path class="cls-2" d="m86.13,57.63c-.36-2.6-1.16-4.74-2.38-6.33-.21-.27-.43-.52-.66-.76.48-.3.79-.65,1-.95.89-1.2,1.25-2.79.98-4.25-.12-.65-.35-1.13-.71-1.45-.89-.81-2.3-.48-3.06.34-.06.06-.12.13-.17.2-.28-1-1.01-1.73-1.88-1.88-1.2-.2-2.26.75-2.65,1.76-.03.07-.06.15-.08.23l-.07-.12c-.62-1.01-1.58-1.63-2.57-1.66-1.49-.03-2.84,1.38-2.89,3.03-.04,1.33.68,2.71,1.93,3.7.27.21.56.41.88.59-.63.7-1.04,1.54-1.18,2.42-.15.92-.02,1.87.09,2.78.17,1.31.33,2.54-.34,3.45-.5.67-1.23.82-1.76.82-1.06,0-2.19-.56-2.81-1.39-1.12-1.51-1.27-3.52-1.34-5.81l-.81-28.22c-.12-4.11-.64-8.61-3.49-11.12.94-1.21,1.67-2.58,2.12-4.02.38-1.19.61-2.85-.37-4.01-.47-.55-1.16-.88-1.95-.92-.99-.06-2.07.34-2.81,1.04-.58.54-1,1.21-1.32,1.91-.25-.58-.63-1.09-1.13-1.46-1.26-.92-3.13-.84-4.26.2-.49.45-.81,1.06-.95,1.72-.41-.47-.88-.9-1.46-1.21-.8-.43-1.84-.52-2.69-.23-.69.23-1.22.7-1.5,1.31-.36.79-.27,1.79.22,2.67.43.77,1.09,1.35,1.67,1.82,1.03.84,2.12,1.61,3.26,2.3-2.13,2.18-3.1,5-3.53,7.05-.66,3.07-.58,6.23-.51,9.28l.44,18.04c.04,1.7-.07,3.4-1.15,4.26-.59.47-1.27.5-1.74.44-.94-.11-1.89-.67-2.49-1.45-1.05-1.37-1.36-3.23-1.66-5.02l-.02-.11c-.33-1.98-.76-4.03-2.12-5.52-1.04-1.13-2.55-1.77-4.24-1.79-2.08-.02-4.26.89-5.69,2.38-2.15,2.24-3.26,5.62-3.29,10.05-.03,4.37.91,8.3,2.73,11.37,2.16,3.66,5.66,6.17,9.37,6.71.64.09,1.3.14,1.95.19,2.02.15,3.94.29,5.05,1.67.82,1.02.94,2.43,1.02,4.05l.87,19.19c-4.55.74-9.13,1.65-13.61,2.71-.01,0-.03,0-.04.01-.01,0-.03.01-.05.02-.01,0-.03.02-.04.02-.01,0-.03.01-.04.03-.01.01-.03.02-.04.03-.01.01-.02.02-.03.03s-.02.02-.03.04c0,.01-.02.02-.03.04,0,.01-.02.03-.02.04,0,.01-.02.03-.02.04,0,.02,0,.03-.01.05,0,.02-.01.03-.01.05,0,.02,0,.03,0,.05,0,.02,0,.03,0,.05,0,.02,0,.03,0,.05,0,.01,0,.03,0,.04l.17.87c.23,1.16.47,2.31.7,3.47l.68,3.36s0,0,0,0h0s4.39,21.79,4.39,21.79c-.12.1-.19.26-.18.43.02.25.22.44.46.46.02,0,.04,0,.06,0,.07.05.14.07.23.08.05,0,.1,0,.15,0,.09-.02.17-.06.24-.12,11.94-.98,24.02-2.24,35.91-3.75.22-.03.4-.2.44-.42,1.07-6.75,1.59-13.69,1.56-20.66,0-.87-.02-1.8-.04-2.75,0-.01,0-.03,0-.04-.03-1.08-.07-2.17-.12-3.25-.08-1.57-.19-3.15-.32-4.71,0-.01,0-.02,0-.03,0-.02,0-.03,0-.05s-.01-.03-.02-.05c0-.01-.01-.03-.02-.04,0-.02-.02-.03-.03-.05,0-.01-.01-.02-.02-.03-.01-.02-.02-.03-.04-.04,0,0-.02-.02-.03-.03-.01-.01-.03-.03-.05-.04,0,0-.02-.01-.03-.02-.02-.01-.04-.02-.06-.03-.01,0-.02-.01-.03-.01-.02,0-.04-.01-.06-.02-.01,0-.02,0-.04,0-.02,0-.04,0-.06,0-.01,0-.02,0-.03,0-3.09,0-6.21.08-9.29.24l-.42-6.75c-.22-3.5-.44-7-.66-10.5,4.51,2.86,11.06,2.19,15.41-1.7,4.14-3.71,6.18-9.91,5.31-16.17Zm-12.57-8.95c-1-.78-1.58-1.86-1.55-2.87.03-.99.83-2.07,1.85-2.05.76.02,1.39.62,1.73,1.17.43.71.63,1.56.81,2.4.06.26.31.43.57.39.26-.04.45-.28.43-.54-.07-.82-.15-1.74.14-2.52.24-.64.88-1.23,1.53-1.12.57.1.96.71,1.09,1.23.16.67.06,1.41-.04,2.14-.04.27.14.52.41.57.27.05.52-.12.59-.38.18-.76.39-1.62.92-2.19.42-.46,1.21-.67,1.64-.29.19.17.32.47.4.89.22,1.2-.07,2.49-.8,3.47-.21.29-.48.59-.97.83-1.37-1.1-2.97-1.67-4.54-1.62-1.11.04-2.24.46-3.16,1.15-.4-.21-.74-.43-1.04-.67ZM48.39,11.04c-.51-.42-1.08-.91-1.43-1.53-.34-.6-.41-1.27-.18-1.76.2-.45.6-.67.9-.77.59-.2,1.33-.13,1.88.16.96.52,1.62,1.52,2.17,2.42.08.16.17.31.27.45.16.22.46.27.69.13.23-.15.29-.45.16-.68l-.22-.37c-.38-.84-.16-1.97.51-2.59.77-.71,2.1-.77,2.97-.13.83.61,1.23,1.83.95,2.88-.01.04-.02.08-.03.11-.08.27.07.55.34.63.27.08.55-.07.63-.33.01-.04.03-.09.04-.14.38-1.3.82-2.74,1.82-3.68.54-.51,1.33-.81,2.06-.77.36.02.86.13,1.23.57.72.85.42,2.27.18,3.05-.42,1.33-1.1,2.6-1.96,3.72-.04-.03-.08-.05-.12-.08-2.6-1.62-6.34-1.3-9.08.79-.13.1-.26.2-.38.31-1.19-.7-2.32-1.49-3.39-2.36Zm25.89,112.81c-11.71,1.48-23.6,2.72-35.35,3.69l-3.43-17.05c.8-.82,1.59-1.65,2.39-2.47l.03-.03,2.19,2.16c.1.09.23.15.36.15.14,0,.27-.06.36-.16l1.48-1.57c.78-.82,1.55-1.65,2.32-2.47l2.72,2.47c.11.09.25.14.39.13.14-.01.27-.09.36-.2.85-1.15,1.7-2.3,2.55-3.45l2.51,2.58c.1.1.24.16.39.15.15,0,.28-.08.37-.19.54-.69,1.08-1.37,1.62-2.06l1.3-1.65c1.44.88,2.75,2.04,3.8,3.37.09.11.22.19.37.19.15,0,.29-.05.39-.15,1.04-1.07,2.07-2.13,3.11-3.2.73.93,1.46,1.87,2.18,2.8.16.2.42.54.85.63.67.14,1.18-.43,1.37-.64.91-1.04,1.77-2.12,2.57-3.25.6.99,1.2,1.98,1.8,2.97l.03.05c.08.14.22.22.38.24.16.01.31-.04.42-.15.55-.58,1.11-1.15,1.66-1.73-.03,6.36-.53,12.69-1.49,18.86Zm1.49-20.32c-.65.67-1.29,1.34-1.94,2.01-.63-1.04-1.26-2.08-1.9-3.13-.09-.15-.25-.24-.42-.25-.17,0-.33.08-.43.22-.89,1.31-1.88,2.59-2.94,3.79-.3.34-.4.32-.41.32-.06-.01-.2-.19-.25-.26-.85-1.08-1.7-2.17-2.54-3.26-.09-.11-.23-.18-.37-.19-.15,0-.29.05-.39.15-1.04,1.07-2.08,2.14-3.12,3.21-1.16-1.35-2.57-2.52-4.1-3.4-.22-.13-.49-.07-.65.13l-1.57,2c-.42.54-.84,1.07-1.26,1.6l-2.52-2.6c-.1-.1-.25-.16-.4-.15-.15,0-.28.08-.37.2l-.03.04c-.85,1.15-1.7,2.29-2.55,3.44l-2.67-2.42c-.2-.18-.52-.17-.71.03-.89.94-1.78,1.89-2.67,2.83l-1.12,1.19-2.19-2.15c-.1-.1-.23-.15-.36-.15-.13,0-.26.06-.36.16l-.38.39c-.63.66-1.27,1.31-1.9,1.97l-.62-3.1c13.46-3.32,27.28-4.9,41.11-4.68.02.7.02,1.38.03,2.04Zm-.14-5.31c.04.76.06,1.51.09,2.26-13.89-.21-27.77,1.37-41.29,4.7l-.47-2.35c13.62-3.5,27.64-5.05,41.67-4.62Zm-.3-4.68c.1,1.21.18,2.44.25,3.66-14.08-.43-28.15,1.13-41.82,4.64-.2-.98-.4-1.96-.59-2.95l-.08-.39c4.45-1.05,8.99-1.94,13.5-2.66,6.43-1.02,12.98-1.71,19.47-2.05,3.07-.16,6.19-.25,9.27-.26Zm4.82-20.48c-4.28,3.84-10.87,4.29-14.99,1.03-.16-.12-.37-.14-.55-.05-.18.09-.28.28-.27.48.24,3.85.49,7.7.73,11.55l.42,6.74c-6.16.34-12.38,1-18.5,1.95l-.86-19.08c-.06-1.38-.15-3.28-1.24-4.64-1.39-1.73-3.61-1.89-5.76-2.05-.66-.05-1.28-.09-1.88-.18-3.41-.5-6.64-2.83-8.64-6.22-1.72-2.91-2.61-6.66-2.59-10.85.03-4.16,1.04-7.3,3.01-9.35,1.24-1.3,3.14-2.09,4.95-2.07,1,.01,2.42.27,3.51,1.46,1.17,1.28,1.56,3.17,1.86,5l.02.11c.32,1.92.65,3.9,1.86,5.48.76.99,1.98,1.69,3.17,1.83.95.12,1.82-.11,2.5-.66,1.42-1.13,1.58-3.11,1.53-5.07l-.44-18.04c-.07-2.99-.15-6.09.48-9.04.44-2.05,1.44-4.92,3.71-6.98.19-.17.39-.34.6-.49,2.41-1.83,5.68-2.14,7.93-.73.15.09.3.19.45.31,2.87,2.16,3.38,6.61,3.49,10.67l.81,28.22c.05,1.9.13,4.5,1.54,6.38.82,1.1,2.24,1.81,3.63,1.8,1.08,0,1.99-.44,2.58-1.23.91-1.24.72-2.73.53-4.18-.11-.84-.22-1.72-.1-2.49.14-.86.62-1.69,1.36-2.32.79-.67,1.81-1.08,2.81-1.12,1.4-.05,2.85.51,4.09,1.58.38.33.74.71,1.06,1.12,1.11,1.46,1.84,3.43,2.18,5.86.82,5.93-1.09,11.79-4.98,15.28Z"/>
    <path class="cls-8" d="m75.76,103.52c-.65.67-1.29,1.34-1.94,2.01-.63-1.04-1.26-2.08-1.9-3.13-.09-.15-.25-.24-.42-.25-.17,0-.33.08-.43.22-.89,1.31-1.88,2.59-2.94,3.79-.3.34-.4.32-.41.32-.06-.01-.2-.19-.25-.26-.85-1.08-1.7-2.17-2.54-3.26-.09-.11-.23-.18-.37-.19-.15,0-.29.05-.39.15-1.04,1.07-2.08,2.14-3.12,3.21-1.16-1.35-2.57-2.52-4.1-3.4-.22-.13-.49-.07-.65.13l-1.57,2c-.42.54-.84,1.07-1.26,1.6l-2.52-2.6c-.1-.1-.25-.16-.4-.15-.15,0-.28.08-.37.2l-.03.04c-.85,1.15-1.7,2.29-2.55,3.44l-2.67-2.42c-.2-.18-.52-.17-.71.03-.89.94-1.78,1.89-2.67,2.83l-1.12,1.19-2.19-2.15c-.1-.1-.23-.15-.36-.15-.13,0-.26.06-.36.16l-.38.39c-.63.66-1.27,1.31-1.9,1.97l-.62-3.1c13.46-3.32,27.28-4.9,41.11-4.68.02.7.02,1.38.03,2.04Z"/>
    <path class="cls-10" d="m83.28,48.98c-.21.29-.48.59-.97.83-1.37-1.1-2.97-1.67-4.54-1.62-1.11.04-2.24.46-3.16,1.15-.4-.21-.74-.43-1.04-.67-1-.78-1.58-1.86-1.55-2.87.03-.99.83-2.07,1.85-2.05.76.02,1.39.62,1.73,1.18.43.71.63,1.56.81,2.4.06.26.31.43.57.39.26-.04.45-.28.43-.54-.07-.82-.15-1.74.15-2.52.24-.64.88-1.23,1.53-1.12.57.1.96.71,1.09,1.23.16.67.06,1.42-.04,2.14-.04.27.14.52.41.57.27.05.52-.12.59-.38.18-.76.39-1.62.92-2.19.42-.46,1.21-.67,1.64-.29.19.17.32.47.4.89.22,1.2-.07,2.49-.8,3.47Z"/>
    <path class="cls-10" d="m63.32,8.67c-.42,1.33-1.1,2.6-1.96,3.72-.04-.03-.08-.05-.12-.08-2.6-1.62-6.34-1.3-9.08.79-.13.1-.26.2-.38.31-1.18-.7-2.32-1.49-3.39-2.36-.51-.42-1.08-.91-1.43-1.53-.34-.6-.41-1.27-.18-1.76.2-.45.6-.67.9-.77.59-.2,1.33-.13,1.88.16.96.52,1.62,1.52,2.17,2.42.08.16.17.31.27.45.16.22.46.27.69.12.23-.15.29-.45.16-.68l-.22-.37c-.38-.84-.16-1.97.51-2.59.77-.71,2.1-.77,2.97-.13.83.61,1.23,1.83.95,2.88-.01.04-.02.08-.03.11-.08.27.07.55.34.63.27.08.55-.07.63-.33.01-.05.03-.09.04-.14.38-1.3.82-2.74,1.82-3.68.54-.51,1.34-.81,2.06-.77.36.02.86.13,1.23.57.72.85.42,2.27.18,3.05Z"/>
    <path class="cls-6" d="m75.77,104.98c-.56.57-1.11,1.15-1.66,1.73-.11.11-.26.16-.42.15-.16-.02-.3-.11-.38-.24l-.03-.05c-.6-.99-1.2-1.98-1.8-2.97-.8,1.12-1.66,2.21-2.57,3.25-.19.21-.7.78-1.37.64-.43-.09-.69-.43-.85-.63-.73-.93-1.46-1.86-2.18-2.8-1.04,1.07-2.07,2.13-3.11,3.2-.1.1-.24.16-.39.15-.15,0-.28-.08-.37-.19-1.05-1.33-2.36-2.48-3.8-3.37l-1.3,1.65c-.54.69-1.08,1.37-1.62,2.06-.09.11-.23.18-.37.19s-.29-.05-.39-.15l-2.51-2.58c-.85,1.15-1.7,2.3-2.55,3.45-.09.12-.21.19-.36.2-.14.01-.28-.03-.39-.13l-2.72-2.46c-.77.82-1.55,1.65-2.32,2.47l-1.48,1.57c-.09.1-.22.16-.36.16-.14,0-.27-.05-.36-.15l-2.19-2.16-.03.03c-.8.82-1.59,1.65-2.39,2.47l3.43,17.05c11.75-.96,23.64-2.2,35.35-3.69.96-6.17,1.46-12.5,1.49-18.86Zm-32.56,12.47l-1.01,2.08c-.09.19-.3.3-.5.28-.06,0-.12-.02-.17-.05-.25-.12-.36-.43-.23-.68l1.01-2.08c.12-.25.43-.36.68-.23.25.12.36.43.23.68Zm1.37.04l-.51,1.96c-.06.24-.29.4-.54.38-.03,0-.05,0-.08-.01-.27-.07-.43-.35-.36-.62l.51-1.96c.07-.27.35-.43.62-.36.27.07.43.35.36.62Zm5.02-3.03c-.27.07-.55-.09-.62-.36-.17-.66-.39-1.09-.69-1.35-.28-.24-.76-.35-1.02-.12-.16.13-.26.39-.26.68,0,.33.09.69.18,1.02.07.27-.09.55-.36.62-.06.02-.12.02-.18.02-.2-.02-.38-.16-.44-.37-.1-.37-.22-.83-.21-1.3.01-.59.24-1.11.63-1.43.63-.53,1.64-.47,2.34.13.61.53.87,1.32,1.01,1.86.07.27-.09.55-.36.62Zm8.01,3.35c-.42,1.23-1.4,2.14-2.49,2.31-.21.03-.42.04-.63.02-.92-.09-1.85-.65-2.48-1.54-.67-.94-.96-2.06-1.21-3.05-.07-.27.09-.55.37-.62.27-.07.55.09.62.37.23.9.49,1.93,1.05,2.71.43.6,1.24,1.25,2.13,1.11.82-.12,1.44-.91,1.69-1.63.3-.88.25-1.86.14-2.79-.03-.28.17-.53.45-.56.28-.03.53.17.56.45.11.99.18,2.15-.19,3.23Zm2.06-4.51c-.28.03-.53-.17-.56-.44-.06-.48-.11-.98-.34-1.35-.16-.27-.5-.51-.77-.44-.2.06-.39.29-.47.58-.09.34-.06.75-.03,1.13.02.28-.19.52-.47.54-.03,0-.06,0-.09,0-.24-.02-.44-.22-.46-.47-.03-.45-.07-.97.07-1.48.18-.65.63-1.14,1.18-1.29.69-.19,1.48.18,1.91.89.34.56.41,1.22.48,1.76.03.28-.17.53-.44.56Zm5.02,1.8c-.17.73-.46,1.43-.85,2.08-.1.17-.29.26-.48.24-.07,0-.15-.03-.21-.07-.24-.14-.32-.45-.17-.69.34-.56.58-1.16.73-1.79.07-.27.34-.44.61-.37.27.07.44.34.37.61Zm2.01-.19c-.33.82-.57,1.68-.74,2.55-.05.26-.29.44-.55.41-.01,0-.03,0-.05,0-.27-.05-.46-.32-.4-.59.18-.94.44-1.86.79-2.74.1-.26.4-.39.66-.28.26.1.39.4.28.66Z"/>
    <path class="cls-4" d="m75.71,100.47c-13.89-.21-27.77,1.37-41.29,4.7l-.47-2.35c13.62-3.5,27.64-5.05,41.67-4.62.04.75.06,1.51.09,2.26Z"/>
    <path class="cls-1" d="m75.57,97.19c-14.08-.43-28.15,1.13-41.82,4.64-.2-.98-.4-1.96-.59-2.95l-.08-.39c4.45-1.05,8.99-1.94,13.5-2.66,6.43-1.02,12.98-1.71,19.47-2.05,3.07-.16,6.19-.25,9.27-.26.1,1.21.18,2.44.25,3.66Z"/>
    <path class="cls-8" d="m85.12,57.77c-.34-2.43-1.07-4.4-2.18-5.86-.32-.41-.67-.79-1.06-1.12-1.23-1.07-2.68-1.63-4.09-1.58-1,.04-2.02.44-2.81,1.12-.74.63-1.22,1.45-1.36,2.32-.12.78-.01,1.65.1,2.49.19,1.45.38,2.94-.53,4.18-.58.79-1.5,1.23-2.58,1.23-1.38,0-2.81-.7-3.63-1.8-1.41-1.89-1.48-4.49-1.54-6.38l-.81-28.22c-.12-4.06-.62-8.51-3.49-10.67-.15-.11-.3-.21-.45-.31-2.25-1.4-5.52-1.1-7.93.73-.21.16-.41.32-.6.49-2.28,2.06-3.28,4.93-3.71,6.98-.63,2.96-.56,6.05-.48,9.04l.44,18.04c.05,1.97-.1,3.94-1.53,5.07-.68.55-1.55.77-2.5.66-1.2-.14-2.41-.85-3.17-1.83-1.21-1.57-1.54-3.56-1.86-5.48l-.02-.11c-.3-1.83-.69-3.72-1.86-5-1.08-1.18-2.5-1.45-3.51-1.46-1.81-.02-3.71.77-4.95,2.07-1.97,2.05-2.98,5.2-3.01,9.35-.03,4.19.86,7.94,2.59,10.85,2,3.4,5.24,5.72,8.64,6.22.6.09,1.22.13,1.88.18,2.15.16,4.38.32,5.76,2.05,1.09,1.36,1.17,3.25,1.24,4.63l.86,19.08c6.12-.95,12.34-1.6,18.5-1.95l-.42-6.74c-.24-3.85-.48-7.7-.73-11.55-.01-.2.09-.39.27-.48.18-.09.39-.07.55.05,4.12,3.26,10.71,2.81,14.99-1.03,3.89-3.49,5.8-9.35,4.98-15.28Zm-50.13-12.38c.23-.15.55-.09.7.15l.64.98.85-1.24c.16-.23.47-.29.7-.13.23.16.29.47.13.7l-1.27,1.86c-.1.14-.26.22-.42.22-.01,0-.03,0-.04,0-.15-.01-.29-.1-.38-.23l-1.05-1.62c-.15-.23-.09-.55.15-.7Zm-7.06.89c.21-.19.53-.17.72.04.3.33.56.69.81,1.07.33-.6.7-1.18,1.11-1.72.17-.22.49-.27.71-.1.22.17.27.49.1.71-.56.74-1.04,1.54-1.43,2.39-.08.18-.26.29-.45.3-.02,0-.04,0-.06,0-.17-.02-.32-.12-.4-.28-.31-.61-.69-1.18-1.14-1.69-.18-.21-.17-.53.04-.71Zm2.57,10.09c-.13-.01-.25-.07-.34-.18l-1.8-2.14c-.18-.21-.15-.53.06-.71.21-.18.53-.15.71.06l1.25,1.49c.23-.52.5-1.01.82-1.48.16-.23.47-.29.7-.13.23.16.29.47.13.7-.43.63-.77,1.32-1.02,2.05-.06.17-.21.3-.39.34-.05,0-.09,0-.14,0Zm3.27,4.58l-1.2,1.79c-.1.15-.27.24-.45.23h-.02c-.17-.02-.32-.12-.4-.28l-1.16-2.27c-.13-.25-.03-.56.22-.68.25-.13.55-.03.68.22l.76,1.5.71-1.08c.15-.23.47-.3.7-.14.23.15.3.47.14.7Zm1.57-8.05c.23-.16.54-.11.71.12l1.07,1.51.93-1.51c.15-.24.46-.31.7-.17.24.15.31.46.17.7l-1.33,2.16c-.09.15-.24.24-.41.24-.02,0-.04,0-.07,0-.15-.01-.28-.09-.37-.21l-1.51-2.13c-.16-.23-.11-.54.12-.71Zm3.59,7.79l-.89,2.02c-.08.18-.25.29-.44.3-.02,0-.05,0-.07,0-.16-.02-.31-.11-.39-.26l-1.18-2.09c-.14-.24-.05-.55.19-.69.24-.14.55-.05.69.19l.68,1.21.48-1.1c.11-.26.41-.37.67-.26.26.11.37.41.26.67Zm23.1-7.86c.14-.24.46-.32.7-.17.24.14.32.46.17.7-.62,1.04-1.15,2.15-1.56,3.29-.07.19-.25.33-.46.33-.02,0-.05,0-.07,0-.18-.02-.34-.13-.41-.29l-1.24-2.73c-.12-.26,0-.56.25-.67.25-.12.55,0,.67.25l.75,1.64c.35-.81.75-1.59,1.2-2.35Zm-11.6-28.75c-.13-.25-.04-.55.2-.69.25-.13.55-.04.69.2l1.24,2.28.93-2.49c.1-.26.39-.4.65-.3.26.1.4.39.3.65l-1.32,3.53c-.07.19-.24.31-.44.33-.03,0-.06,0-.08,0-.17-.02-.31-.11-.4-.26l-1.78-3.25Zm.06,18.64c.25-.12.55-.02.68.23l1.38,2.75c.37-.84.78-1.66,1.23-2.45.14-.24.45-.33.69-.19.24.14.33.45.19.69-.61,1.07-1.15,2.2-1.59,3.35-.07.19-.25.31-.45.32-.02,0-.05,0-.07,0-.17-.02-.33-.12-.41-.28l-1.88-3.74c-.13-.25-.02-.55.23-.68Zm-.82,18.29c.26-.1.55.04.65.3l.82,2.22,1.7-2.04c.18-.22.5-.24.71-.07.22.18.25.5.07.71l-2.26,2.72c-.11.13-.27.2-.44.18h-.04c-.18-.04-.33-.16-.39-.33l-1.12-3.05c-.1-.26.04-.55.3-.65Zm2.83,19.73l-1.93,3.83c-.08.17-.25.27-.44.28-.02,0-.04,0-.06,0-.16-.02-.31-.11-.39-.25l-1.92-3.28c-.14-.24-.06-.55.18-.69.24-.14.55-.06.69.18l1.45,2.48,1.51-3c.13-.25.43-.35.68-.22s.35.43.22.68Zm7.2-59.49c-.17-.02-.32-.11-.4-.26l-1.82-3.39c-.13-.25-.04-.55.21-.69s.55-.04.69.21l1.37,2.54c.43-.89.8-1.81,1.09-2.75.08-.27.37-.42.63-.33.27.08.42.37.33.63-.41,1.31-.95,2.58-1.61,3.78-.09.16-.26.26-.45.26-.02,0-.03,0-.05,0Zm.76,14.61l-1.52-3.44c-.11-.26,0-.55.26-.67.26-.11.56,0,.67.26l.97,2.2c.32-.84.74-1.65,1.26-2.39.16-.23.48-.29.7-.13.23.16.29.47.13.7-.7,1.01-1.22,2.18-1.52,3.38-.05.21-.23.37-.45.38-.03,0-.06,0-.09,0-.18-.02-.34-.13-.42-.3Zm-1.75,40.43l-1.54-2.81c-.13-.25-.05-.55.2-.69s.55-.05.69.2l1.2,2.18c.52-.63.93-1.35,1.21-2.12.09-.26.39-.4.65-.3.26.1.4.39.3.65-.41,1.12-1.07,2.16-1.9,3-.11.11-.26.16-.41.15,0,0-.02,0-.02,0-.16-.02-.3-.12-.37-.26Zm4.03,9.58c-.58,1.33-1.25,2.63-1.99,3.88-.09.16-.26.25-.44.25-.01,0-.03,0-.04,0-.16-.02-.31-.11-.39-.25l-1.76-3.1c-.14-.24-.05-.55.19-.69.24-.14.55-.05.69.19l1.33,2.33c.55-.98,1.05-1.99,1.5-3.01.11-.26.41-.37.67-.26.26.11.37.41.26.67Zm5.93-21.53c-.66.64-1.17,1.43-1.48,2.3-.07.19-.24.32-.44.34-.03,0-.06,0-.09,0-.17-.02-.32-.11-.4-.27l-1.42-2.67c-.13-.25-.04-.55.21-.69.25-.13.55-.04.68.21l.93,1.75c.34-.63.78-1.21,1.29-1.7.2-.19.52-.19.72.01.19.2.19.52-.01.72Zm8.27-1.64l-1.77,2.47c-.11.15-.28.23-.46.21h0c-.18-.02-.34-.14-.41-.31l-1.32-3.14c-.11-.26.01-.56.27-.66.26-.11.55.01.66.27l.97,2.31,1.24-1.73c.16-.23.48-.28.71-.12.23.16.28.48.12.71Zm1.1-8.14l-1.57,2.66c-.1.17-.28.26-.47.25h-.01c-.19-.02-.35-.14-.42-.32l-.97-2.4c-.1-.26.02-.56.28-.66.26-.1.55.02.66.28l.59,1.45,1.05-1.77c.14-.24.45-.32.69-.18.24.14.32.45.18.69Zm4.39,12.22l-1.35,1.63c-.22.27-.46.31-.62.3-.01,0-.02,0-.03,0-.24-.03-.42-.19-.54-.46l-.74-1.7c-.11-.26,0-.56.26-.67s.55,0,.67.26l.54,1.25,1.03-1.25c.18-.22.5-.25.71-.07.22.18.25.5.07.71Zm1.31-8.67c-.66.59-1.28,1.24-1.84,1.93-.11.13-.27.2-.44.18-.01,0-.03,0-.04,0-.18-.03-.33-.16-.39-.33l-.59-1.74c-.09-.26.05-.55.31-.64.26-.09.55.05.64.32l.31.9c.43-.48.89-.93,1.37-1.36.21-.19.53-.17.71.04.19.21.17.53-.04.72Z"/>
    <path class="cls-2" d="m54.44,23.73l-1.32,3.53c-.07.19-.24.31-.44.33-.03,0-.06,0-.08,0-.17-.02-.31-.11-.4-.26l-1.78-3.25c-.13-.25-.04-.55.2-.69.25-.13.55-.04.69.2l1.24,2.28.93-2.49c.1-.26.39-.4.65-.3.26.1.4.39.3.65Z"/>
    <path class="cls-2" d="m62.93,32.39c-.7,1.01-1.22,2.18-1.52,3.38-.05.21-.23.37-.45.38-.03,0-.06,0-.09,0-.18-.02-.34-.13-.42-.3l-1.52-3.44c-.11-.26,0-.55.26-.67.26-.11.56,0,.67.26l.97,2.2c.32-.84.74-1.65,1.26-2.39.16-.23.48-.29.7-.13.23.16.29.47.13.7Z"/>
    <path class="cls-2" d="m54.66,43.75c-.61,1.07-1.15,2.2-1.59,3.35-.07.19-.25.31-.45.32-.02,0-.05,0-.07,0-.17-.02-.33-.12-.41-.28l-1.88-3.74c-.13-.25-.02-.55.23-.68.25-.12.55-.02.68.23l1.38,2.75c.37-.84.78-1.66,1.23-2.45.14-.24.45-.33.69-.19.24.14.33.45.19.69Z"/>
    <path class="cls-2" d="m62.9,53.34c-.62,1.04-1.15,2.15-1.56,3.29-.07.19-.25.33-.46.33-.02,0-.05,0-.07,0-.18-.02-.34-.13-.41-.29l-1.24-2.73c-.12-.26,0-.56.25-.67.25-.12.55,0,.67.25l.75,1.64c.35-.81.75-1.59,1.2-2.35.14-.24.46-.32.7-.17.24.14.32.46.17.7Z"/>
    <path class="cls-2" d="m31.37,46.28c-.56.74-1.04,1.54-1.43,2.39-.08.18-.26.29-.45.3-.02,0-.04,0-.06,0-.17-.02-.32-.12-.4-.28-.31-.61-.69-1.18-1.14-1.69-.18-.21-.17-.53.04-.71.21-.19.53-.17.72.04.3.33.56.69.81,1.07.33-.6.7-1.18,1.11-1.72.17-.22.49-.27.71-.1.22.17.27.49.1.71Z"/>
    <path class="cls-2" d="m38.01,45.85l-1.27,1.86c-.1.14-.26.22-.42.22-.01,0-.03,0-.04,0-.15-.01-.29-.1-.38-.23l-1.05-1.62c-.15-.23-.09-.55.15-.7.23-.15.55-.09.7.15l.64.98.85-1.24c.16-.23.47-.29.7-.13.23.16.29.47.13.7Z"/>
    <path class="cls-2" d="m32.05,53.97c-.43.63-.77,1.32-1.02,2.05-.06.17-.21.3-.39.34-.05,0-.09,0-.14,0-.13-.01-.25-.07-.34-.18l-1.8-2.14c-.18-.21-.15-.53.06-.71.21-.18.53-.15.71.06l1.25,1.49c.23-.52.5-1.01.82-1.48.16-.23.47-.29.7-.13.23.16.29.47.13.7Z"/>
    <path class="cls-2" d="m38.91,53.54l-1.33,2.16c-.09.15-.24.24-.41.24-.02,0-.04,0-.07,0-.15-.01-.28-.09-.37-.21l-1.51-2.13c-.16-.23-.11-.54.12-.71.23-.16.54-.11.71.12l1.07,1.51.93-1.51c.15-.24.46-.31.7-.17.24.15.31.46.17.7Z"/>
    <path class="cls-2" d="m33.78,60.95l-1.2,1.79c-.1.15-.27.24-.45.23h-.02c-.17-.02-.32-.12-.4-.28l-1.16-2.27c-.13-.25-.03-.56.22-.68.25-.13.55-.03.68.22l.76,1.5.71-1.08c.15-.23.47-.3.7-.14.23.15.3.47.14.7Z"/>
    <path class="cls-2" d="m38.93,60.68l-.89,2.02c-.08.18-.25.29-.44.3-.02,0-.05,0-.07,0-.16-.02-.31-.11-.39-.26l-1.18-2.09c-.14-.24-.05-.55.19-.69.24-.14.55-.05.69.19l.68,1.21.48-1.1c.11-.26.41-.37.67-.26.26.11.37.41.26.67Z"/>
    <path class="cls-2" d="m53.61,62.13l-2.26,2.72c-.11.13-.27.2-.44.18h-.04c-.18-.04-.33-.16-.39-.33l-1.12-3.05c-.1-.26.04-.55.3-.65s.55.04.65.3l.82,2.22,1.7-2.04c.18-.22.5-.24.71-.07.22.18.25.5.07.71Z"/>
    <path class="cls-2" d="m78.03,54.55l-1.57,2.66c-.1.17-.28.26-.47.25h-.01c-.19-.02-.35-.14-.42-.32l-.97-2.4c-.1-.26.02-.56.28-.66.26-.1.55.02.66.28l.59,1.45,1.05-1.77c.14-.24.45-.32.69-.18.24.14.32.45.18.69Z"/>
    <path class="cls-2" d="m83.73,58.1c-.66.59-1.28,1.24-1.84,1.93-.11.13-.27.2-.44.18-.01,0-.03,0-.04,0-.18-.03-.33-.16-.39-.33l-.59-1.74c-.09-.26.05-.55.31-.64.26-.09.55.05.64.32l.31.9c.43-.48.89-.93,1.37-1.36.21-.19.53-.17.71.04.19.21.17.53-.04.72Z"/>
    <path class="cls-2" d="m76.93,62.69l-1.77,2.47c-.11.15-.28.23-.46.21h0c-.18-.02-.34-.14-.41-.31l-1.32-3.14c-.11-.26.01-.56.27-.66.26-.11.55.01.66.27l.97,2.31,1.24-1.73c.16-.23.48-.28.71-.12.23.16.28.48.12.71Z"/>
    <path class="cls-2" d="m82.42,66.77l-1.35,1.63c-.22.27-.46.31-.62.3-.01,0-.02,0-.03,0-.24-.03-.42-.19-.54-.46l-.74-1.7c-.11-.26,0-.56.26-.67s.55,0,.67.26l.54,1.25,1.03-1.25c.18-.22.5-.25.71-.07.22.18.25.5.07.71Z"/>
    <path class="cls-2" d="m68.66,64.34c-.66.64-1.17,1.43-1.48,2.3-.07.19-.24.32-.44.34-.03,0-.06,0-.09,0-.17-.02-.32-.11-.4-.27l-1.42-2.67c-.13-.25-.04-.55.21-.69.25-.13.55-.04.68.21l.93,1.75c.34-.63.78-1.21,1.29-1.7.2-.19.52-.19.72.01.19.2.19.52-.01.72Z"/>
    <path class="cls-2" d="m61.41,73.39c-.41,1.12-1.07,2.16-1.9,3-.11.11-.26.16-.41.15,0,0-.02,0-.02,0-.16-.02-.3-.12-.37-.26l-1.54-2.81c-.13-.25-.05-.55.2-.69s.55-.05.69.2l1.2,2.18c.52-.63.93-1.35,1.21-2.12.09-.26.39-.4.65-.3.26.1.4.39.3.65Z"/>
    <path class="cls-2" d="m52.49,80.74l-1.93,3.83c-.08.17-.25.27-.44.28-.02,0-.04,0-.06,0-.16-.02-.31-.11-.39-.25l-1.92-3.28c-.14-.24-.06-.55.18-.69.24-.14.55-.06.69.18l1.45,2.48,1.51-3c.13-.25.43-.35.68-.22s.35.43.22.68Z"/>
    <path class="cls-2" d="m62.73,85.86c-.58,1.33-1.25,2.63-1.99,3.88-.09.16-.26.25-.44.25-.01,0-.03,0-.04,0-.16-.02-.31-.11-.39-.25l-1.76-3.1c-.14-.24-.05-.55.19-.69.24-.14.55-.05.69.19l1.33,2.33c.55-.98,1.05-1.99,1.5-3.01.11-.26.41-.37.67-.26.26.11.37.41.26.67Z"/>
    <path class="cls-2" d="m61.79,17.2c-.41,1.31-.95,2.58-1.61,3.78-.09.16-.26.26-.45.26-.02,0-.03,0-.05,0-.17-.02-.32-.11-.4-.26l-1.82-3.39c-.13-.25-.04-.55.21-.69s.55-.04.69.21l1.37,2.54c.43-.89.8-1.81,1.09-2.75.08-.27.37-.42.63-.33.27.08.42.37.33.63Z"/>
  </g>
  <g>
    <path class="cls-5" d="m626.6,48.86c.04-.44-.25-.84-.69-1-.45-.16-.95-.02-1.24.33l-22.78,27.81c-4.69-12.14-10.24-24.09-16.53-35.57-.18-.32-.53-.53-.92-.54-.39-.02-.76.17-.96.47-7.27,10.95-14,22.37-20.01,33.99-4.89-10.56-10.56-20.89-16.87-30.75-.22-.35-.67-.54-1.11-.47-.44.07-.79.38-.88.78l-11.64,54.06c-.06.29.02.59.22.82.21.23.51.36.83.36h0c33.56-.15,63.19,1.16,91.86,2.43.02,0,.03,0,.05,0,.29,0,.57-.11.77-.3.21-.2.32-.49.3-.77-1.64-17.13-1.78-34.51-.42-51.65Z"/>
    <path class="cls-5" d="m538.93,39.09c.94.7,2.1,1.08,3.3,1.08.18,0,.36,0,.54-.03,2.87-.27,4.97-2.6,4.68-5.2-.14-1.25-.8-2.38-1.86-3.17-1.08-.81-2.45-1.18-3.85-1.05-2.86.27-4.96,2.6-4.68,5.2.14,1.25.8,2.38,1.86,3.18Z"/>
    <path class="cls-5" d="m580.33,36.56c1.02.77,2.29,1.18,3.61,1.18.2,0,.41,0,.61-.03,3.11-.29,5.39-2.77,5.09-5.52-.14-1.3-.84-2.48-1.96-3.32-1.18-.89-2.68-1.29-4.22-1.15-3.11.29-5.39,2.77-5.09,5.52.14,1.3.83,2.48,1.96,3.32Z"/>
    <path class="cls-5" d="m631.98,39.29c-.14-1.31-.85-2.51-2-3.37-1.23-.92-2.87-1.36-4.49-1.21-3.27.31-5.68,2.86-5.37,5.68.14,1.31.85,2.51,2,3.37,1.07.8,2.45,1.24,3.86,1.24.21,0,.42,0,.64-.03,3.27-.31,5.68-2.86,5.37-5.68Z"/>
  </g>
</svg>